<?xml version="1.0" standalone="no"?>
<!DOCTYPE svg PUBLIC "-//W3C//DTD SVG 20010904//EN"
 "http://www.w3.org/TR/2001/REC-SVG-20010904/DTD/svg10.dtd">
<svg version="1.0" xmlns="http://www.w3.org/2000/svg"
 width="800.000000pt" height="304.000000pt" viewBox="0 0 300.000000 274.000000"
 preserveAspectRatio="xMidYMid meet">
<metadata>
Created by potrace 1.10, written by Peter Selinger 2001-2011
</metadata>
<g transform="translate(0.000000,274.000000) scale(0.100000,-0.100000)"
fill="#000000" stroke="none">
<path d="M1140 2067 l-345 -82 -35 -70 c-34 -68 -35 -72 -35 -190 0 -120 0
-122 38 -197 65 -133 172 -205 290 -196 29 2 113 19 187 37 74 18 139 33 143
34 4 1 37 -76 72 -172 36 -95 79 -196 96 -222 62 -96 193 -196 289 -219 35 -8
51 -19 64 -41 23 -38 19 -42 -78 -84 -100 -43 -121 -58 -152 -104 -46 -70 -43
-196 6 -261 15 -19 22 -22 31 -13 9 9 7 22 -10 55 -28 59 -28 141 0 188 32 52
47 62 197 125 54 23 69 54 47 98 -8 17 -14 31 -12 33 1 1 16 4 32 6 27 3 32
-2 53 -43 21 -44 22 -49 9 -82 -15 -35 -37 -49 -165 -102 -112 -47 -134 -150
-55 -253 19 -25 28 -30 38 -22 11 9 8 20 -17 60 -61 99 -33 157 96 200 45 15
81 35 108 61 39 37 40 40 36 92 -3 33 -13 65 -26 84 l-22 31 34 57 c42 69 56
129 56 243 0 109 -4 123 -134 477 -59 160 -113 309 -122 332 -46 126 -191 224
-329 222 -22 0 -195 -37 -385 -82z m527 10 c65 -33 128 -98 148 -151 8 -23 66
-183 130 -356 63 -173 115 -323 115 -332 0 -46 -138 -140 -255 -174 -77 -22
-220 -24 -239 -4 -13 15 -140 350 -134 354 2 2 22 8 46 14 42 10 44 9 53 -16
97 -262 125 -319 146 -298 3 3 -24 83 -60 177 l-67 170 19 37 c46 93 64 198
50 296 -8 60 -24 105 -77 209 -2 4 3 7 11 7 9 0 22 7 30 15 13 13 20 11 55
-15 56 -40 85 -87 123 -196 18 -52 34 -92 37 -90 7 8 -61 187 -85 223 -30 44
-29 55 3 43 35 -14 39 -13 23 7 -24 29 -94 53 -150 52 -125 -3 -217 1 -254 9
l-40 9 60 12 c33 7 74 17 90 21 56 17 165 5 222 -23z m-352 -52 c104 -10 108
-15 25 -36 -66 -17 -93 -18 -235 -12 l-160 8 115 27 c63 14 131 24 150 22 19
-2 67 -6 105 -9z m231 -111 c54 -114 55 -230 4 -362 l-30 -78 -145 -34 c-80
-20 -145 -34 -145 -33 0 1 11 13 23 25 99 99 137 319 79 452 -12 25 -21 50
-20 54 1 4 42 19 92 33 104 29 101 31 142 -57z m-316 22 c30 -3 38 -9 60 -52
22 -44 25 -61 25 -159 0 -102 -2 -115 -31 -176 -56 -117 -139 -178 -245 -179
-217 -1 -352 289 -247 532 l21 49 191 -6 c105 -4 207 -8 226 -9z m847 -839
c-14 -171 -67 -264 -159 -274 -57 -7 -119 13 -185 58 -57 40 -133 108 -133
120 0 5 32 9 71 9 128 0 280 55 356 129 21 21 42 39 47 40 5 0 6 -35 3 -82z"/>
<path d="M1715 1708 c-2 -7 -17 -89 -34 -183 -21 -116 -27 -171 -20 -176 6 -3
31 5 56 18 24 14 45 24 47 22 1 -2 13 -44 27 -93 21 -77 39 -109 54 -94 2 2
22 84 43 181 44 202 42 214 -29 167 -24 -17 -47 -30 -50 -30 -4 0 -19 45 -34
100 -18 64 -33 100 -42 100 -8 0 -15 -6 -18 -12z m46 -172 c7 -32 19 -60 26
-63 7 -3 32 7 55 22 l41 27 -7 -23 c-3 -13 -14 -63 -24 -111 -9 -49 -19 -88
-22 -88 -3 0 -14 32 -24 70 -10 39 -22 70 -28 70 -6 0 -27 -10 -46 -22 l-35
-22 7 40 c3 21 12 72 18 112 13 79 19 77 39 -12z"/>
<path d="M837 1830 c-32 -25 -42 -78 -23 -124 35 -85 116 -58 116 39 0 42 -22
90 -45 99 -22 8 -19 9 -48 -14z m51 -48 c19 -55 -7 -114 -35 -77 -16 22 -17
59 -3 86 15 27 26 24 38 -9z"/>
<path d="M1012 1843 c-18 -7 -42 -58 -42 -90 0 -15 9 -43 20 -60 25 -42 60
-44 90 -5 18 22 21 36 17 76 -6 65 -41 97 -85 79z m42 -49 c12 -32 6 -84 -10
-91 -20 -7 -34 13 -34 49 0 36 9 58 25 58 7 0 16 -7 19 -16z"/>
<path d="M1161 1824 c-52 -66 2 -190 67 -155 27 15 46 65 39 107 -12 72 -67
97 -106 48z m69 -68 c0 -45 -14 -63 -34 -47 -19 16 -21 82 -4 99 17 17 38 -12
38 -52z"/>
<path d="M911 1624 c-38 -48 -22 -148 26 -160 34 -9 52 2 69 42 18 43 11 89
-19 122 -27 29 -51 28 -76 -4z m59 -33 c13 -25 13 -57 -1 -82 -22 -42 -58 26
-39 75 11 31 25 33 40 7z"/>
<path d="M1076 1628 c-23 -33 -21 -109 5 -142 25 -32 49 -33 77 -3 30 32 31
114 2 145 -27 28 -65 28 -84 0z m66 -43 c13 -29 2 -75 -19 -82 -18 -6 -35 45
-28 79 8 35 32 36 47 3z"/>
</g>
</svg>
