<?xml version="1.0" standalone="no"?>
<!DOCTYPE svg PUBLIC "-//W3C//DTD SVG 20010904//EN"
 "http://www.w3.org/TR/2001/REC-SVG-20010904/DTD/svg10.dtd">
<svg version="1.0" xmlns="http://www.w3.org/2000/svg"
 width="300.000000pt" height="300.000000pt" viewBox="0 0 300.000000 300.000000"
 preserveAspectRatio="xMidYMid meet">
<metadata>
Created by potrace 1.10, written by Peter Selinger 2001-2011
</metadata>
<g transform="translate(0.000000,300.000000) scale(0.100000,-0.100000)"
fill="#000000" stroke="none">
<path d="M783 2350 c-57 -12 -96 -33 -137 -76 -75 -77 -71 -36 -74 -739 -2
-569 -1 -634 14 -674 23 -60 79 -119 139 -147 48 -23 60 -24 290 -24 135 0
256 5 277 10 21 6 58 26 83 45 l45 35 218 0 217 0 23 -40 c71 -124 273 -124
344 0 21 37 26 40 66 40 87 0 142 43 142 112 0 46 -27 162 -46 200 -21 41 -48
54 -170 87 -147 38 -186 57 -269 130 -122 108 -286 189 -417 207 l-48 7 0 68
0 69 69 0 c60 0 74 4 100 26 17 14 35 42 41 62 5 21 10 146 10 284 l0 247 26
20 c24 18 41 21 141 21 108 0 115 -1 138 -25 23 -22 25 -31 25 -128 l0 -104
-38 -7 c-55 -8 -104 -44 -129 -96 -20 -38 -23 -60 -23 -152 l0 -108 50 0 50 0
0 -85 c0 -69 3 -85 15 -85 12 0 15 16 15 85 l0 85 80 0 80 0 0 -85 c0 -69 3
-85 15 -85 12 0 15 16 15 86 l0 86 48 -3 47 -3 3 109 c2 98 0 115 -20 155 -26
51 -75 88 -129 96 l-37 6 -4 107 c-6 167 -27 186 -207 186 -99 0 -120 -3 -145
-20 -52 -35 -56 -61 -56 -337 -1 -183 -4 -257 -13 -269 -21 -27 -54 -39 -111
-39 l-55 0 -3 238 c-3 221 -4 240 -25 277 -27 51 -75 96 -133 126 -43 22 -56
24 -270 26 -124 1 -244 -2 -267 -7z m534 -55 c46 -23 112 -89 101 -101 -3 -2
-183 -3 -402 -2 l-396 3 32 39 c17 21 54 49 82 62 49 23 60 24 292 24 237 0
241 0 291 -25z m127 -157 c3 -13 6 -119 6 -235 l0 -213 -44 0 c-43 0 -43 0
-50 41 -16 99 -97 202 -195 247 -45 21 -71 26 -136 27 -71 0 -88 -4 -147 -33
-117 -57 -188 -167 -189 -291 -1 -64 18 -122 62 -195 39 -63 139 -191 213
-271 l56 -60 74 77 c135 138 245 305 262 396 6 30 9 32 50 32 l44 0 0 -372 c0
-205 -4 -379 -8 -386 -7 -10 -98 -12 -423 -10 l-414 3 -3 610 c-1 336 0 620 3
633 l5 22 414 0 414 0 6 -22z m714 -135 c57 -42 67 -67 70 -174 l4 -99 -181 0
-181 0 0 85 c0 120 32 181 106 205 46 15 153 5 182 -17z m-1001 -59 c83 -40
148 -125 168 -221 l7 -33 -60 0 -60 0 -12 38 c-26 80 -119 140 -201 129 -57
-8 -113 -48 -138 -99 -79 -163 83 -326 246 -247 48 23 80 62 94 114 10 35 10
35 69 35 33 0 60 -4 60 -10 0 -56 -106 -226 -226 -363 l-77 -88 -29 28 c-65
61 -201 242 -239 317 -44 89 -50 149 -23 229 19 57 92 141 146 168 86 44 186
45 275 3z m-67 -136 c33 -17 51 -35 68 -68 l23 -45 -33 -3 c-20 -2 -34 1 -37
9 -10 31 -51 59 -85 59 -82 0 -120 -90 -63 -147 44 -45 124 -29 142 28 5 14
16 19 41 19 39 0 39 0 20 -43 -43 -104 -180 -127 -255 -42 -86 99 -19 249 114
254 12 1 41 -9 65 -21z m-28 -95 c38 -34 12 -93 -41 -93 -34 0 -51 17 -51 51
0 52 54 77 92 42z m506 -238 c129 -31 248 -94 357 -191 81 -72 130 -97 263
-132 62 -17 124 -38 138 -47 31 -20 47 -57 64 -146 21 -108 5 -135 -89 -146
l-48 -5 -1 51 c-2 95 -60 164 -160 191 -60 15 -139 -8 -187 -55 -38 -38 -69
-122 -59 -161 l6 -24 -206 0 c-113 0 -206 2 -206 4 0 2 9 23 20 47 18 41 20
67 20 337 0 227 3 292 13 292 6 0 40 -7 75 -15z m559 -471 c54 -26 86 -76 91
-143 7 -101 -52 -171 -152 -179 -67 -5 -115 15 -152 64 -25 33 -29 46 -29 104
0 57 4 72 27 102 49 65 140 87 215 52z m-707 -161 c0 -22 -99 -100 -142 -112
-30 -9 -116 -11 -278 -9 -258 3 -265 5 -329 69 -69 68 -93 64 350 64 295 0
399 -3 399 -12z"/>
<path d="M932 2283 c48 -2 129 -2 180 0 51 1 12 3 -87 3 -99 0 -141 -2 -93 -3z"/>
<path d="M775 2264 c-50 -25 -66 -48 -20 -26 22 10 51 23 65 30 22 9 22 11 5
11 -11 1 -33 -6 -50 -15z"/>
<path d="M910 1075 c-19 -23 1 -26 131 -23 93 2 114 6 114 18 0 23 -226 28
-245 5z"/>
<path d="M1383 1035 c0 -33 2 -45 4 -27 2 18 2 45 0 60 -2 15 -4 0 -4 -33z"/>
<path d="M1990 1972 c-41 -20 -80 -75 -79 -111 1 -26 1 -26 11 4 17 46 45 78
91 102 49 26 28 31 -23 5z"/>
<path d="M963 1921 c-110 -38 -201 -145 -203 -239 0 -36 19 -16 26 27 7 46 61
122 115 160 22 17 66 35 97 42 31 7 61 16 67 21 16 14 -48 8 -102 -11z"/>
<path d="M1514 1425 c11 -8 31 -15 44 -15 13 0 64 -13 114 -30 94 -32 123 -37
113 -20 -4 6 -11 8 -16 5 -5 -4 -9 -2 -9 3 0 11 1 10 -125 46 -49 14 -101 26
-115 26 -24 -1 -24 -1 -6 -15z"/>
<path d="M1520 881 c0 -12 268 -12 275 0 4 5 -49 9 -134 9 -78 0 -141 -4 -141
-9z"/>
<path d="M2003 944 c-39 -19 -67 -74 -58 -114 8 -37 48 -77 85 -85 41 -9 95
19 114 60 9 18 16 38 16 45 0 30 -34 80 -65 94 -41 20 -52 20 -92 0z m99 -41
c23 -20 24 -80 1 -105 -22 -24 -77 -24 -103 2 -44 44 -11 120 52 120 17 0 40
-7 50 -17z"/>
</g>
</svg>
